<svg xmlns:xlink="http://www.w3.org/1999/xlink" xmlns="http://www.w3.org/2000/svg" viewBox="0 0 32 32" class="align-center inline-block h-[18px] w-[18px]" data-v-9d69d700="" width="32"  height="32" ><path fill="#A34DFF" d="m0 24 8 8h16l8-8V8l-8-8H8L0 8v16z"></path><path fill="#B878FF" d="M22 4H10L8 0 0 8l4 2v12l6 6h12l6-6V10l-6-6z"></path><path d="M10 18h12v2H10zm8-14h-4a4 4 0 0 0-4 4v6h12V8a4 4 0 0 0-4-4Zm-4 16h-4a4 4 0 0 0 4 4v4h4v-4a4 4 0 0 0 4-4h-8Z"></path><path fill="#4E2780" d="M10 18h12v2H10zm6-6V8h-4v4h-2v2h12v-2h-6z"></path></svg>