<svg xmlns:xlink="http://www.w3.org/1999/xlink" width="18" height="18" viewBox="0 0 18 18" fill="none" xmlns="http://www.w3.org/2000/svg" class="align-center inline-block h-[18px] w-[18px]" data-v-35a1d8b6=""><g clip-path="url(#clip0_5681_210749)" fill="none"><path d="M0 13.5L4.5 18H13.5L18 13.5V4.5L13.5 0H4.5L0 4.5V13.5Z" fill="#FFAE00"></path><path d="M12.375 2.25H5.625L4.5 0L0 4.5L2.25 5.625V12.375L5.625 15.75H12.375L15.75 12.375V5.625L12.375 2.25Z" fill="#FFD273"></path><path d="M11.8125 12.375V3.375H7.3125L5.0625 5.625V7.875H7.3125V12.375H5.0625V14.625H14.0625V12.375H11.8125Z" fill="black"></path><path d="M7.3125 10.125V12.375H5.0625V14.625H7.3125L11.8125 10.125V5.625L7.3125 10.125Z" fill="#663D00"></path><path d="M5.0625 7.875L9.5625 3.375H7.3125L5.0625 5.625V7.875Z" fill="#663D00"></path></g></svg>