<svg xmlns:xlink="http://www.w3.org/1999/xlink" xmlns="http://www.w3.org/2000/svg" viewBox="0 0 32 32" class="align-center inline-block h-[18px] w-[18px]" data-v-9d69d700="" width="32"  height="32" ><path fill="#FF4545" d="m0 24 8 8h16l8-8V8l-8-8H8L0 8v16z"></path><path fill="#FF8787" d="M22 4H10L8 0 0 8l4 2v12l6 6h12l6-6V10l-6-6z"></path><path d="M9.4 7.3c-3 0-5.4 2.4-5.4 5.4v6.6a5.5 5.5 0 0 0 10.9 0v-6.6c0-3-2.4-5.4-5.5-5.4Zm2.2 12c0 1.2-1 2.1-2.2 2.1-1.2 0-2.1-1-2.1-2.1v-6.6c0-1.2-.3-2.2 2.1-2.2 1.2 0 2.2 1 2.2 2.2v6.6ZM28 15h-5.5v3.2h2.2v1c.3 1.8-1 2.3-2.1 2.3s-2.2-1-2.2-2.2v-6.6a2.2 2.2 0 0 1 4-1H28a5.5 5.5 0 0 0-10.8 1v6.6a5.4 5.4 0 1 0 11 0v-4.4Z"></path><path fill="#AB2F2F" d="M4 12.7S4 7 9.5 7.3v3.3s-2.2 0-2.2 2.1H4Zm18.6 8.7v3.3s5.4.3 5.4-5.4h-3.3s.3 1.7-2.1 2.1Z"></path></svg>