<svg xmlns:xlink="http://www.w3.org/1999/xlink" width="18" height="16" viewBox="0 0 18 16" fill="none" xmlns="http://www.w3.org/2000/svg" class="align-center inline-block h-[20px] w-[20px]" data-v-0a17d72c=""><path d="M15.429 3.50014V2.21443H14.1433V0.928711H5.14328H3.85756V2.21443H2.57185V3.50014H1.28613V8.643H2.57185V9.92871H3.85756V11.2144H5.14328V12.5001H6.42899V13.7859H7.7147V15.0716H10.2861V13.7859H11.5718V12.5001H12.8576V11.2144H14.1433V9.92871H15.429V8.643H16.7147V3.50014H15.429Z" fill="#00D0FF"></path><path d="M2.57185 6.07129H1.28613V8.64272H2.57185V6.07129Z" fill="#00B6FA"></path><path d="M3.857 7.35693H2.57129V9.92836H3.857V7.35693Z" fill="#00B6FA"></path><path d="M11.5716 12.5H6.42871V13.7857H11.5716V12.5Z" fill="#00B6FA"></path><path d="M10.2857 13.7856H9V15.0714H10.2857V13.7856Z" fill="#00B6FA"></path><path d="M8.99958 13.7856H7.71387V15.0714H8.99958V13.7856Z" fill="#0069D4"></path><path d="M9.00028 9.92871H3.85742V11.2144H9.00028V9.92871Z" fill="#0069D4"></path><path d="M3.85756 3.5H1.28613V4.78571H3.85756V3.5Z" fill="#0069D4"></path><path d="M7.71401 11.2144H5.14258V12.5001H7.71401V11.2144Z" fill="#009BEF"></path><path d="M5.14272 2.21436H2.57129V3.50007H5.14272V2.21436Z" fill="#00B6FA"></path><path d="M1.28571 4.78564H0V7.35707H1.28571V4.78564Z" fill="#00D0FF"></path><path d="M17.9996 4.78564H16.7139V7.35707H17.9996V4.78564Z" fill="#00D0FF"></path><path d="M5.14272 6.07129H2.57129V7.357H5.14272V6.07129Z" fill="#87EFFF"></path><path d="M15.4286 6.07129H9V7.357H15.4286V6.07129Z" fill="#87EFFF"></path><path d="M16.7144 4.78564H15.4287V6.07136H16.7144V4.78564Z" fill="#FFFFFF"></path><path d="M15.4283 3.5H14.1426V4.78571H15.4283V3.5Z" fill="#87EFFF"></path><path d="M14.1427 2.21436H11.5713V3.50007H14.1427V2.21436Z" fill="#87EFFF"></path><path d="M10.2853 11.2144H7.71387V12.5001H10.2853V11.2144Z" fill="#1BE6FF"></path><path d="M8.99972 3.5H5.14258V4.78571H8.99972V3.5Z" fill="#00B6FA"></path><path d="M7.71415 4.78564H2.57129V6.07136H7.71415V4.78564Z" fill="#009BEF"></path><path d="M11.5717 0.928711H3.85742V2.21443H11.5717V0.928711Z" fill="#1BE6FF"></path><path d="M12.8574 7.35693H3.85742V9.92836H12.8574V7.35693Z" fill="#009BEF"></path><path d="M6.42885 7.35693H3.85742V8.64265H6.42885V7.35693Z" fill="#FFFFFF"></path><path d="M1.28571 4.78564H0V7.35707H1.28571V4.78564Z" fill="#1BE6FF"></path><path d="M14.1427 9.92871H11.5713V11.2144H14.1427V9.92871Z" fill="#00B6FA"></path><path d="M15.4289 8.64307H12.8574V9.92878H15.4289V8.64307Z" fill="#1BE6FF"></path><path d="M9.00028 0.928711H3.85742V2.21443H9.00028V0.928711Z" fill="#87EFFF"></path><path d="M15.4284 4.78564H11.5713V6.07136H15.4284V4.78564Z" fill="#FFFFFF"></path><path d="M6.42885 2.21436H3.85742V3.50007H6.42885V2.21436Z" fill="#FFFFFF"></path><path d="M2.57185 4.78564H1.28613V6.07136H2.57185V4.78564Z" fill="#FFFFFF"></path><path d="M11.5714 12.5H9V13.7857H11.5714V12.5Z" fill="#87EFFF"></path><path d="M16.7146 7.35693H12.8574V8.64265H16.7146V7.35693Z" fill="#0069D4"></path><path d="M12.8571 8.64307H9V9.92878H12.8571V8.64307Z" fill="#0069D4"></path><path d="M8.99972 6.07129H5.14258V7.357H8.99972V6.07129Z" fill="#00B6FA"></path><path d="M12.8571 0.928711H9V2.21443H12.8571V0.928711Z" fill="#FFFFFF"></path><path d="M14.1433 2.21436H10.2861V3.50007H14.1433V2.21436Z" fill="#FFFFFF"></path></svg>