<svg width="80" height="77" viewBox="0 0 80 77" fill="none" xmlns="http://www.w3.org/2000/svg">
<path d="M68.7158 24.2781H69.7525" stroke="#51557E" stroke-width="19" stroke-linecap="round"/>
<path d="M46.9457 11.838C46.4297 7.71002 30.4239 5.61792 27.0185 5.61792C21.0809 5.61792 13.3794 8.31554 10.662 14.4297C5.93674 25.0616 1.83677 45.6519 13.5417 53.3051C19.8691 57.4422 27.3377 58.4885 34.736 58.4885C38.2876 58.4885 41.8391 58.4885 45.3907 58.4885C49.0185 58.4885 49.1732 56.6951 50.1134 59.9859C50.5363 61.4661 51.3391 65.2761 52.3595 66.5515C53.1391 67.526 53.4649 72.9517 54.2601 69.3736C55.5971 63.3571 60.906 58.4885 66.6426 58.4885" stroke="#51557E" stroke-width="11" stroke-linecap="round"/>
</svg>
