<svg width="291" height="77" viewBox="0 0 291 77" fill="none" xmlns="http://www.w3.org/2000/svg">
<path d="M68.7158 24.6602H69.7525" stroke="#51557E" stroke-width="19" stroke-linecap="round"/>
<path d="M46.9457 12.2201C46.4297 8.0921 30.4239 6 27.0185 6C21.0809 6 13.3794 8.69762 10.662 14.8118C5.93674 25.4436 1.83677 46.034 13.5417 53.6872C19.8691 57.8243 27.3377 58.8706 34.736 58.8706C38.2876 58.8706 41.8391 58.8706 45.3907 58.8706C49.0185 58.8706 49.1732 57.0772 50.1134 60.368C50.5363 61.8482 51.3391 65.6582 52.3595 66.9336C53.1391 67.9081 53.4649 73.3338 54.2601 69.7557C55.5971 63.7392 60.906 58.8706 66.6426 58.8706" stroke="#51557E" stroke-width="11" stroke-linecap="round"/>
<path d="M115.504 15.624C118.619 15.624 121.349 16.072 123.696 16.968C126.085 17.8213 127.28 18.9947 127.28 20.488C127.28 21.9813 126.704 23.8373 125.552 26.056C124.443 28.232 123.504 29.32 122.736 29.32C122.523 29.32 122.267 29.2133 121.968 29C121.712 28.744 121.072 28.488 120.048 28.232C119.067 27.9333 118.213 27.784 117.488 27.784C115.013 27.784 113.008 28.6587 111.472 30.408C109.979 32.1573 109.232 34.8453 109.232 38.472C109.232 42.056 110 44.7227 111.536 46.472C113.115 48.2213 115.099 49.096 117.488 49.096C118.469 49.096 119.557 48.968 120.752 48.712C121.989 48.4133 122.864 48.008 123.376 47.496C123.461 47.4107 123.632 47.368 123.888 47.368C124.144 47.368 124.613 47.8587 125.296 48.84C126.021 49.7787 126.683 51.0373 127.28 52.616C127.877 54.152 128.176 55.3467 128.176 56.2C128.176 57.864 126.896 59.1867 124.336 60.168C121.776 61.1493 118.747 61.64 115.248 61.64C109.616 61.64 104.987 59.656 101.36 55.688C97.7333 51.72 95.92 46.1307 95.92 38.92C95.92 31.6667 97.776 25.9707 101.488 21.832C105.243 17.6933 109.915 15.624 115.504 15.624ZM146.643 60.552C146.643 60.936 144.851 61.128 141.267 61.128C137.726 61.128 135.955 60.8293 135.955 60.232V16.392C135.955 16.0933 136.616 15.88 137.939 15.752C139.262 15.624 140.371 15.56 141.267 15.56C144.851 15.56 146.643 15.944 146.643 16.712V29.512C149.032 28.7867 150.846 28.424 152.083 28.424C155.326 28.424 157.886 29.2987 159.763 31.048C161.64 32.7547 162.579 35.9547 162.579 40.648V60.488C162.579 60.872 160.915 61.064 157.587 61.064C153.832 60.936 151.955 60.7227 151.955 60.424V41.608C151.955 39.5173 151.272 38.472 149.907 38.472C148.968 38.472 147.88 38.92 146.643 39.816V60.552ZM175.25 37.768C174.055 35.6347 173.458 33.9067 173.458 32.584C173.458 31.2187 173.82 30.344 174.546 29.96C176.978 28.8933 180.306 28.36 184.53 28.36C188.796 28.36 191.804 29.3627 193.554 31.368C195.303 33.3307 196.178 36.2533 196.178 40.136V50.248H198.354C199.079 50.248 199.634 50.6747 200.018 51.528C200.444 52.3813 200.658 53.5547 200.658 55.048C200.658 56.5413 200.274 58.0133 199.506 59.464C198.78 60.9147 197.778 61.64 196.498 61.64C194.194 61.64 192.338 61.0213 190.93 59.784C190.29 59.272 189.799 58.6533 189.458 57.928C187.495 60.4027 184.444 61.64 180.306 61.64C177.191 61.64 174.567 60.5307 172.434 58.312C170.3 56.0933 169.234 53.4693 169.234 50.44C169.234 43.4853 173.394 40.008 181.714 40.008H185.234V39.368C185.234 38.2587 185.042 37.5547 184.658 37.256C184.316 36.9147 183.484 36.744 182.162 36.744C180.54 36.744 178.236 37.0853 175.25 37.768ZM180.37 49.544C180.37 50.4827 180.626 51.208 181.138 51.72C181.65 52.1893 182.29 52.424 183.058 52.424C183.868 52.424 184.594 52.104 185.234 51.464V46.536H183.442C181.394 46.536 180.37 47.5387 180.37 49.544ZM222.2 60.616C222.2 61.128 220.408 61.384 216.824 61.384C212.557 61.2133 210.424 60.936 210.424 60.552V37.896H207.16C206.307 37.896 205.88 36.424 205.88 33.48C205.88 32.712 205.944 31.7733 206.072 30.664C206.243 29.5547 206.563 29 207.032 29H210.424V23.368C210.424 22.5147 212.216 22.088 215.8 22.088C219.427 22.088 221.24 22.4293 221.24 23.112V27.208L221.304 29H226.744C227.469 29 227.832 30.4933 227.832 33.48C227.832 36.4667 227.469 37.96 226.744 37.96H222.2V60.616ZM248.963 60.616C248.963 61.128 247.171 61.384 243.587 61.384C239.32 61.2133 237.187 60.936 237.187 60.552V37.896H233.923C233.069 37.896 232.643 36.424 232.643 33.48C232.643 32.712 232.707 31.7733 232.835 30.664C233.005 29.5547 233.325 29 233.795 29H237.187V23.368C237.187 22.5147 238.979 22.088 242.563 22.088C246.189 22.088 248.003 22.4293 248.003 23.112V27.208L248.067 29H253.507C254.232 29 254.595 30.4933 254.595 33.48C254.595 36.4667 254.232 37.96 253.507 37.96H248.963V60.616ZM263.757 57.224C261.112 54.28 259.789 50.2053 259.789 45C259.789 39.7947 261.112 35.72 263.757 32.776C266.445 29.832 270.05 28.36 274.573 28.36C279.096 28.36 282.68 29.832 285.325 32.776C287.97 35.72 289.293 39.7947 289.293 45C289.293 50.2053 287.97 54.28 285.325 57.224C282.68 60.168 279.096 61.64 274.573 61.64C270.05 61.64 266.445 60.168 263.757 57.224ZM274.573 39.048C272.184 39.048 270.989 41.0107 270.989 44.936C270.989 48.8613 272.184 50.824 274.573 50.824C277.005 50.824 278.221 48.8613 278.221 44.936C278.221 41.0107 277.005 39.048 274.573 39.048Z" fill="#51557E"/>
</svg>
